<svg width="41" height="41" viewBox="0 0 41 41" fill="none" xmlns="http://www.w3.org/2000/svg">
<g id="_15" clip-path="url(#clip0_191_82)">
<path id="Vector" d="M19.7163 19.5239H17.7437V21.4762H19.7163V19.5239Z" fill="#EDEDED"/>
<path id="Vector_2" d="M21.6867 21.4761H19.7153V23.4283H21.6867V21.4761Z" fill="#E59F23"/>
<path id="Vector_3" d="M23.6579 21.4761H21.6865V23.4283H23.6579V21.4761Z" fill="#E59F23"/>
<path id="Vector_4" d="M23.6579 23.4283H21.6865V25.3806H23.6579V23.4283Z" fill="#FF4545"/>
<path id="Vector_5" d="M25.6304 21.4761H23.6577V23.4283H25.6304V21.4761Z" fill="#FF4545"/>
<path id="Vector_6" d="M9.85712 21.4761H7.88574V23.4283H9.85712V21.4761Z" fill="#BA2424"/>
<path id="Vector_7" d="M19.7163 27.3329H17.7437V29.2851H19.7163V27.3329Z" fill="#BA2424"/>
<path id="Vector_8" d="M17.7438 29.2852H15.7725V31.2374H17.7438V29.2852Z" fill="#BA2424"/>
<path id="Vector_9" d="M15.7722 25.3806H13.8008V27.3329H15.7722V25.3806Z" fill="#BA2424"/>
<path id="Vector_10" d="M27.6018 23.4283H25.6304V25.3806H27.6018V23.4283Z" fill="#E59F23"/>
<path id="Vector_11" d="M29.572 25.3806H27.6006V27.3329H29.572V25.3806Z" fill="#E59F23"/>
<path id="Vector_12" d="M31.545 27.3329H29.5723V29.2851H31.545V27.3329Z" fill="#BA2424"/>
<path id="Vector_13" d="M33.5163 31.2374H31.5449V33.1897H33.5163V31.2374Z" fill="#BA2424"/>
<path id="Vector_14" d="M35.4875 33.1897H33.5161V35.142H35.4875V33.1897Z" fill="#3A3A3A"/>
<path id="Vector_15" d="M41.0002 18.1136H39.0288V20.0659H41.0002V18.1136Z" fill="#3A3A3A"/>
<path id="Vector_16" d="M31.545 19.5239H29.5723V21.4762H31.545V19.5239Z" fill="#BA2424"/>
<path id="Vector_17" d="M29.572 11.7148H27.6006V13.6671H29.572V11.7148Z" fill="#BA2424"/>
<path id="Vector_18" d="M23.6579 11.7148H21.6865V13.6671H23.6579V11.7148Z" fill="#BA2424"/>
<path id="Vector_19" d="M31.545 13.6671H29.5723V15.6194H31.545V13.6671Z" fill="#BA2424"/>
<path id="Vector_20" d="M31.545 9.76123H29.5723V11.7135H31.545V9.76123Z" fill="#BA2424"/>
<path id="Vector_21" d="M33.5163 5.85681H31.5449V7.80907H33.5163V5.85681Z" fill="#E59F23"/>
<path id="Vector_22" d="M35.4875 3.90454H33.5161V5.8568H35.4875V3.90454Z" fill="#BA2424"/>
<path id="Vector_23" d="M27.6018 7.80908H25.6304V9.76134H27.6018V7.80908Z" fill="#BA2424"/>
<path id="Vector_24" d="M15.7722 15.6194H13.8008V17.5716H15.7722V15.6194Z" fill="#F4DD38"/>
<path id="Vector_25" d="M11.8298 13.6671H9.8584V15.6194H11.8298V13.6671Z" fill="#E59F23"/>
<path id="Vector_26" d="M9.85712 11.7148H7.88574V13.6671H9.85712V11.7148Z" fill="#BA2424"/>
<path id="Vector_27" d="M17.7438 9.76123H15.7725V11.7135H17.7438V9.76123Z" fill="#5E5E5E"/>
<path id="Vector_28" d="M3.94257 5.85681H1.97119V7.80907H3.94257V5.85681Z" fill="#5E5E5E"/>
<path id="Vector_29" d="M1.97138 3.90454H0V5.8568H1.97138V3.90454Z" fill="#5E5E5E"/>
<path id="Vector_30" d="M5.91425 3.90454H3.94287V5.8568H5.91425V3.90454Z" fill="#3A3A3A"/>
<path id="Vector_31" d="M19.7163 0H17.7437V1.95226H19.7163V0Z" fill="#3A3A3A"/>
<path id="Vector_32" d="M27.6018 5.85681H25.6304V7.80907H27.6018V5.85681Z" fill="#3A3A3A"/>
<path id="Vector_33" d="M25.6304 33.1897H23.6577V35.142H25.6304V33.1897Z" fill="#5E5E5E"/>
<path id="Vector_34" d="M19.7163 37.0955H17.7437V39.0477H19.7163V37.0955Z" fill="#5E5E5E"/>
<path id="Vector_35" d="M19.7163 39.0477H17.7437V41.0013H19.7163V39.0477Z" fill="#5E5E5E"/>
<path id="Vector_36" d="M7.88544 35.1432H5.91406V37.0954H7.88544V35.1432Z" fill="#3A3A3A"/>
<path id="Vector_37" d="M3.94257 15.6194H1.97119V17.5716H3.94257V15.6194Z" fill="#3A3A3A"/>
<path id="Vector_38" d="M23.6579 15.6194H21.6865V17.5716H23.6579V15.6194Z" fill="#F4DD38"/>
<path id="Vector_39" d="M21.6867 15.6194H19.7153V17.5716H21.6867V15.6194Z" fill="#F4DD38"/>
<path id="Vector_40" d="M25.6304 13.6671H23.6577V15.6194H25.6304V13.6671Z" fill="#F4DD38"/>
<path id="Vector_41" d="M13.7995 23.4283H11.8281V25.3806H13.7995V23.4283Z" fill="#BA2424"/>
<path id="Vector_42" d="M9.85712 25.3806H7.88574V27.3329H9.85712V25.3806Z" fill="#BA2424"/>
<path id="Vector_43" d="M9.85712 27.3329H7.88574V29.2851H9.85712V27.3329Z" fill="#E59F23"/>
<path id="Vector_44" d="M11.8298 31.2374H9.8584V33.1897H11.8298V31.2374Z" fill="#E59F23"/>
<path id="Vector_45" d="M7.88544 27.3329H5.91406V29.2851H7.88544V27.3329Z" fill="#F4DD38"/>
<path id="Vector_46" d="M5.91425 29.2852H3.94287V31.2374H5.91425V29.2852Z" fill="#E59F23"/>
<path id="Vector_47" d="M1.97138 33.1897H0V35.142H1.97138V33.1897Z" fill="#BA2424"/>
<path id="Vector_48" d="M23.6579 19.5239H21.6865V21.4762H23.6579V19.5239Z" fill="#EDEDED"/>
<path id="Vector_49" d="M25.6304 19.5239H23.6577V21.4762H25.6304V19.5239Z" fill="#E59F23"/>
<path id="Vector_50" d="M27.6018 19.5239H25.6304V21.4762H27.6018V19.5239Z" fill="#E59F23"/>
<path id="Vector_51" d="M23.6579 17.5717H21.6865V19.5239H23.6579V17.5717Z" fill="#E59F23"/>
<path id="Vector_52" d="M25.6304 15.6194H23.6577V17.5716H25.6304V15.6194Z" fill="#E59F23"/>
<path id="Vector_53" d="M23.6579 13.6671H21.6865V15.6194H23.6579V13.6671Z" fill="#E59F23"/>
<path id="Vector_54" d="M21.6867 17.5717H19.7153V19.5239H21.6867V17.5717Z" fill="#E59F23"/>
<path id="Vector_55" d="M17.7438 19.5239H15.7725V21.4762H17.7438V19.5239Z" fill="#EDEDED"/>
<path id="Vector_56" d="M19.7163 17.5717H17.7437V19.5239H19.7163V17.5717Z" fill="#EDEDED"/>
<path id="Vector_57" d="M17.7438 21.4761H15.7725V23.4283H17.7438V21.4761Z" fill="#EDEDED"/>
<path id="Vector_58" d="M17.7438 23.4283H15.7725V25.3806H17.7438V23.4283Z" fill="#F4DD38"/>
<path id="Vector_59" d="M17.7438 25.3806H15.7725V27.3329H17.7438V25.3806Z" fill="#E59F23"/>
<path id="Vector_60" d="M19.7163 25.3806H17.7437V27.3329H19.7163V25.3806Z" fill="#E59F23"/>
<path id="Vector_61" d="M19.7163 29.2852H17.7437V31.2374H19.7163V29.2852Z" fill="#E59F23"/>
<path id="Vector_62" d="M19.7163 23.4283H17.7437V25.3806H19.7163V23.4283Z" fill="#E59F23"/>
<path id="Vector_63" d="M15.7722 21.4761H13.8008V23.4283H15.7722V21.4761Z" fill="#E59F23"/>
<path id="Vector_64" d="M15.7722 17.5717H13.8008V19.5239H15.7722V17.5717Z" fill="#E59F23"/>
<path id="Vector_65" d="M13.7995 15.6194H11.8281V17.5716H13.7995V15.6194Z" fill="#E59F23"/>
<path id="Vector_66" d="M13.7995 19.5239H11.8281V21.4762H13.7995V19.5239Z" fill="#E59F23"/>
<path id="Vector_67" d="M11.8298 19.5239H9.8584V21.4762H11.8298V19.5239Z" fill="#E59F23"/>
<path id="Vector_68" d="M19.7163 21.4761H17.7437V23.4283H19.7163V21.4761Z" fill="#F4DD38"/>
<path id="Vector_69" d="M21.6867 23.4283H19.7153V25.3806H21.6867V23.4283Z" fill="#E59F23"/>
<path id="Vector_70" d="M23.6579 25.3806H21.6865V27.3329H23.6579V25.3806Z" fill="#BA2424"/>
<path id="Vector_71" d="M21.6867 25.3806H19.7153V27.3329H21.6867V25.3806Z" fill="#FF4545"/>
<path id="Vector_72" d="M21.6867 27.3329H19.7153V29.2851H21.6867V27.3329Z" fill="#BA2424"/>
<path id="Vector_73" d="M27.6018 27.3329H25.6304V29.2851H27.6018V27.3329Z" fill="#BA2424"/>
<path id="Vector_74" d="M27.6018 29.2852H25.6304V31.2374H27.6018V29.2852Z" fill="#E59F23"/>
<path id="Vector_75" d="M29.572 29.2852H27.6006V31.2374H29.572V29.2852Z" fill="#BA2424"/>
<path id="Vector_76" d="M21.6867 19.5239H19.7153V21.4762H21.6867V19.5239Z" fill="#F4DD38"/>
<path id="Vector_77" d="M15.7722 19.5239H13.8008V21.4762H15.7722V19.5239Z" fill="#EDEDED"/>
<path id="Vector_78" d="M17.7438 17.5717H15.7725V19.5239H17.7438V17.5717Z" fill="#EDEDED"/>
<path id="Vector_79" d="M17.7438 15.6194H15.7725V17.5716H17.7438V15.6194Z" fill="#E59F23"/>
<path id="Vector_80" d="M19.7163 11.7148H17.7437V13.6671H19.7163V11.7148Z" fill="#E59F23"/>
<path id="Vector_81" d="M15.7722 13.6671H13.8008V15.6194H15.7722V13.6671Z" fill="#BA2424"/>
<path id="Vector_82" d="M15.7722 7.80908H13.8008V9.76134H15.7722V7.80908Z" fill="#BA2424"/>
<path id="Vector_83" d="M5.91425 7.80908H3.94287V9.76134H5.91425V7.80908Z" fill="#BA2424"/>
<path id="Vector_84" d="M19.7163 5.85681H17.7437V7.80907H19.7163V5.85681Z" fill="#BA2424"/>
<path id="Vector_85" d="M13.7995 11.7148H11.8281V13.6671H13.7995V11.7148Z" fill="#E59F23"/>
<path id="Vector_86" d="M19.7163 15.6194H17.7437V17.5716H19.7163V15.6194Z" fill="#EDEDED"/>
<path id="Vector_87" d="M21.6867 13.6671H19.7153V15.6194H21.6867V13.6671Z" fill="#F4DD38"/>
<path id="Vector_88" d="M17.7438 13.6671H15.7725V15.6194H17.7438V13.6671Z" fill="#FF4545"/>
<path id="Vector_89" d="M19.7163 13.6671H17.7437V15.6194H19.7163V13.6671Z" fill="#E59F23"/>
<path id="Vector_90" d="M19.7163 11.7148H17.7437V13.6671H19.7163V11.7148Z" fill="#E59F23"/>
<path id="Vector_91" d="M21.6867 17.5717H19.7153V19.5239H21.6867V17.5717Z" fill="#F4DD38"/>
<path id="Vector_92" d="M27.6018 11.7148H25.6304V13.6671H27.6018V11.7148Z" fill="#E59F23"/>
<path id="Vector_93" d="M29.572 11.7148H27.6006V13.6671H29.572V11.7148Z" fill="#F4DD38"/>
<path id="Vector_94" d="M29.572 9.76123H27.6006V11.7135H29.572V9.76123Z" fill="#E59F23"/>
</g>
<defs>
<clipPath id="clip0_191_82">
<rect width="41" height="41" fill="white"/>
</clipPath>
</defs>
</svg>
