<svg width="26" height="31" viewBox="0 0 26 31" fill="none" xmlns="http://www.w3.org/2000/svg">
<g id="Vector">
<path d="M6.49972 25.3637H5.57135V26.3029H6.49972V25.3637Z" fill="#FFFABB"/>
<path d="M7.42865 25.3637H6.50028V26.3029H7.42865V25.3637Z" fill="#FFFABB"/>
<path d="M5.57135 25.3637H4.64298V26.3029H5.57135V25.3637Z" fill="#FFBF0B"/>
<path d="M6.49972 26.3029H5.57135V27.2421H6.49972V26.3029Z" fill="#FFBF0B"/>
<path d="M7.42865 26.3029H6.50028V27.2421H7.42865V26.3029Z" fill="#FFBF0B"/>
<path d="M5.57135 26.3029H4.64298V27.2421H5.57135V26.3029Z" fill="#ED9220"/>
<path d="M6.49972 27.2427H5.57135V28.1819H6.49972V27.2427Z" fill="#ED9220"/>
<path d="M7.42865 27.2427H6.50028V28.1819H7.42865V27.2427Z" fill="#ED9220"/>
<path d="M5.57135 27.2427H4.64298V28.1819H5.57135V27.2427Z" fill="#E54600"/>
<path d="M6.49972 28.1819H5.57135V29.1211H6.49972V28.1819Z" fill="#E54600"/>
<path d="M7.42865 28.1819H6.50028V29.1211H7.42865V28.1819Z" fill="#E54600"/>
<path d="M5.57135 28.1819H4.64298V29.1211H5.57135V28.1819Z" fill="#D81220"/>
<path d="M6.49972 29.1211H5.57135V30.0603H6.49972V29.1211Z" fill="#D81220"/>
<path d="M7.42865 29.1211H6.50028V30.0603H7.42865V29.1211Z" fill="#D81220"/>
<path d="M5.57135 29.1211H4.64298V30.0603H5.57135V29.1211Z" fill="#9B0000"/>
<path d="M8.35702 25.3637H7.42865V26.3029H8.35702V25.3637Z" fill="#FFBF0B"/>
<path d="M8.35702 26.3029H7.42865V27.2421H8.35702V26.3029Z" fill="#ED9220"/>
<path d="M8.35702 27.2427H7.42865V28.1819H8.35702V27.2427Z" fill="#E54600"/>
<path d="M8.35702 28.1819H7.42865V29.1211H8.35702V28.1819Z" fill="#D81220"/>
<path d="M8.35702 29.1211H7.42865V30.0603H8.35702V29.1211Z" fill="#9B0000"/>
<path d="M6.49972 30.0608H5.57135V31H6.49972V30.0608Z" fill="#9B0000"/>
<path d="M7.42865 30.0608H6.50028V31H7.42865V30.0608Z" fill="#9B0000"/>
<path d="M19.4997 25.3637H18.5713V26.3029H19.4997V25.3637Z" fill="#FFFABB"/>
<path d="M20.4286 25.3637H19.5003V26.3029H20.4286V25.3637Z" fill="#FFFABB"/>
<path d="M18.5713 25.3637H17.643V26.3029H18.5713V25.3637Z" fill="#FFBF0B"/>
<path d="M19.4997 26.3029H18.5713V27.2421H19.4997V26.3029Z" fill="#FFBF0B"/>
<path d="M20.4286 26.3029H19.5003V27.2421H20.4286V26.3029Z" fill="#FFBF0B"/>
<path d="M18.5713 26.3029H17.643V27.2421H18.5713V26.3029Z" fill="#ED9220"/>
<path d="M19.4997 27.2427H18.5713V28.1819H19.4997V27.2427Z" fill="#ED9220"/>
<path d="M20.4286 27.2427H19.5003V28.1819H20.4286V27.2427Z" fill="#ED9220"/>
<path d="M18.5713 27.2427H17.643V28.1819H18.5713V27.2427Z" fill="#E54600"/>
<path d="M19.4997 28.1819H18.5713V29.1211H19.4997V28.1819Z" fill="#E54600"/>
<path d="M20.4286 28.1819H19.5003V29.1211H20.4286V28.1819Z" fill="#E54600"/>
<path d="M18.5713 28.1819H17.643V29.1211H18.5713V28.1819Z" fill="#D81220"/>
<path d="M19.4997 29.1211H18.5713V30.0603H19.4997V29.1211Z" fill="#D81220"/>
<path d="M20.4286 29.1211H19.5003V30.0603H20.4286V29.1211Z" fill="#D81220"/>
<path d="M18.5713 29.1211H17.643V30.0603H18.5713V29.1211Z" fill="#9B0000"/>
<path d="M21.357 25.3637H20.4286V26.3029H21.357V25.3637Z" fill="#FFBF0B"/>
<path d="M21.357 26.3029H20.4286V27.2421H21.357V26.3029Z" fill="#ED9220"/>
<path d="M21.357 27.2427H20.4286V28.1819H21.357V27.2427Z" fill="#E54600"/>
<path d="M21.357 28.1819H20.4286V29.1211H21.357V28.1819Z" fill="#D81220"/>
<path d="M21.357 29.1211H20.4286V30.0603H21.357V29.1211Z" fill="#9B0000"/>
<path d="M19.4997 30.0608H18.5713V31H19.4997V30.0608Z" fill="#9B0000"/>
<path d="M20.4286 30.0608H19.5003V31H20.4286V30.0608Z" fill="#9B0000"/>
<path d="M6.49972 11.2725H5.57135V12.2117H6.49972V11.2725Z" fill="#B7EFF9"/>
<path d="M7.42865 10.3333H6.50028V11.2725H7.42865V10.3333Z" fill="#B7EFF9"/>
<path d="M8.35702 9.39414H7.42865V10.3333H8.35702V9.39414Z" fill="#B7EFF9"/>
<path d="M9.2854 8.45439H8.35702V9.39358H9.2854V8.45439Z" fill="#B7EFF9"/>
<path d="M10.2143 7.5152H9.28595V8.45439H10.2143V7.5152Z" fill="#B7EFF9"/>
<path d="M10.2143 8.45439H9.28595V9.39358H10.2143V8.45439Z" fill="#B3E2F2"/>
<path d="M10.2143 9.39414H9.28595V10.3333H10.2143V9.39414Z" fill="#B3E2F2"/>
<path d="M10.2143 10.3333H9.28595V11.2725H10.2143V10.3333Z" fill="#B3E2F2"/>
<path d="M10.2143 11.2725H9.28595V12.2117H10.2143V11.2725Z" fill="#B3E2F2"/>
<path d="M10.2143 12.2123H9.28595V13.1515H10.2143V12.2123Z" fill="#B3E2F2"/>
<path d="M10.2143 13.1515H9.28595V14.0907H10.2143V13.1515Z" fill="#B3E2F2"/>
<path d="M11.1427 14.0907L10.2143 14.0907V15.0298H11.1427V14.0907Z" fill="#B3E2F2"/>
<path d="M11.1427 15.0304H10.2143V15.9696H11.1427V15.0304Z" fill="#B3E2F2"/>
<path d="M12.0711 15.9696L11.1427 15.9696V16.9088H12.0711V15.9696Z" fill="#B3E2F2"/>
<path d="M13 16.9093H12.0716V17.8485H13V16.9093Z" fill="#B3E2F2"/>
<path d="M10.2143 5.63626H9.28595V6.57545H10.2143V5.63626Z" fill="#B7EFF9"/>
<path d="M10.2143 4.69707H9.28595V5.63626H10.2143V4.69707Z" fill="#E58800"/>
<path d="M11.1427 3.75732H10.2143V4.69651H11.1427V3.75732Z" fill="#FFB339"/>
<path d="M11.1427 2.81813H10.2143V3.75732H11.1427V2.81813Z" fill="#E58800"/>
<path d="M12.0711 1.87894H11.1427V2.81813H12.0711V1.87894Z" fill="#FFB339"/>
<path d="M11.1427 1.87894H10.2143V2.81813H11.1427V1.87894Z" fill="#E58800"/>
<path d="M13 0.939191H12.0716V1.87838H13V0.939191Z" fill="#FFB339"/>
<path d="M12.0711 0.939191H11.1427V1.87838H12.0711V0.939191Z" fill="#E58800"/>
<path d="M5.57135 12.2123H4.64298V13.1515H5.57135V12.2123Z" fill="#B7EFF9"/>
<path d="M4.64298 13.1515H3.7146V14.0907H4.64298L4.64298 13.1515Z" fill="#B7EFF9"/>
<path d="M3.71405 14.0907H2.78567V15.0298H3.71405V14.0907Z" fill="#B7EFF9"/>
<path d="M2.78567 15.0304H1.8573V15.9696H2.78567V15.0304Z" fill="#B7EFF9"/>
<path d="M1.85675 15.9696H0.928374V16.9088H1.85675V15.9696Z" fill="#B7EFF9"/>
<path d="M0.928374 16.9093H0V17.8485H0.928374V16.9093Z" fill="#B7EFF9"/>
<path d="M0.928374 21.6059H0V22.545H0.928374V21.6059Z" fill="#B7EFF9"/>
<path d="M0.928374 20.6667H0V21.6059H0.928374V20.6667Z" fill="#B7EFF9"/>
<path d="M0.928374 19.7275H0V20.6667H0.928374V19.7275Z" fill="#B7EFF9"/>
<path d="M0.928374 18.7877H0V19.7269H0.928374V18.7877Z" fill="#B7EFF9"/>
<path d="M0.928374 17.8485H0V18.7877H0.928374V17.8485Z" fill="#B7EFF9"/>
<path d="M1.85675 20.6667H0.928374V21.6059H1.85675V20.6667Z" fill="white"/>
<path d="M1.85675 19.7275H0.928374V20.6667H1.85675V19.7275Z" fill="white"/>
<path d="M1.85675 18.7877H0.928374V19.7269H1.85675V18.7877Z" fill="white"/>
<path d="M1.85675 17.8485H0.928374V18.7877H1.85675V17.8485Z" fill="white"/>
<path d="M2.78567 20.6667H1.8573V21.6059H2.78567V20.6667Z" fill="white"/>
<path d="M2.78567 19.7275H1.8573V20.6667H2.78567V19.7275Z" fill="white"/>
<path d="M2.78567 18.7877H1.8573V19.7269H2.78567V18.7877Z" fill="white"/>
<path d="M2.78567 17.8485H1.8573V18.7877H2.78567V17.8485Z" fill="white"/>
<path d="M3.71405 20.6667H2.78567V21.6059H3.71405V20.6667Z" fill="#FFB339"/>
<path d="M3.71405 19.7275H2.78567V20.6667H3.71405V19.7275Z" fill="white"/>
<path d="M3.71405 18.7877H2.78567V19.7269H3.71405V18.7877Z" fill="#FFB339"/>
<path d="M3.71405 17.8485H2.78567V18.7877H3.71405V17.8485Z" fill="white"/>
<path d="M1.85675 16.9093H0.928374V17.8485H1.85675V16.9093Z" fill="white"/>
<path d="M2.78567 16.9093H1.8573V17.8485H2.78567V16.9093Z" fill="white"/>
<path d="M3.71405 16.9093H2.78567V17.8485H3.71405V16.9093Z" fill="white"/>
<path d="M2.78567 15.9696H1.8573V16.9088H2.78567V15.9696Z" fill="white"/>
<path d="M3.71405 15.9696L2.78567 15.9696V16.9088H3.71405V15.9696Z" fill="white"/>
<path d="M4.64298 15.9696H3.7146V16.9088H4.64298V15.9696Z" fill="white"/>
<path d="M3.71405 15.0304H2.78567V15.9696L3.71405 15.9696V15.0304Z" fill="white"/>
<path d="M4.64298 15.0304H3.7146V15.9696H4.64298V15.0304Z" fill="white"/>
<path d="M5.57135 15.0304H4.64298V15.9696L5.57135 15.9696V15.0304Z" fill="white"/>
<path d="M4.64298 14.0907H3.7146V15.0298H4.64298V14.0907Z" fill="white"/>
<path d="M5.57135 14.0907L4.64298 14.0907V15.0298H5.57135V14.0907Z" fill="white"/>
<path d="M5.57135 13.1515H4.64298L4.64298 14.0907L5.57135 14.0907V13.1515Z" fill="white"/>
<path d="M6.49972 14.0907H5.57135V15.0298H6.49972V14.0907Z" fill="white"/>
<path d="M6.49972 13.1515H5.57135V14.0907H6.49972V13.1515Z" fill="white"/>
<path d="M7.42865 14.0907H6.50028V15.0298H7.42865V14.0907Z" fill="white"/>
<path d="M7.42865 13.1515H6.50028V14.0907H7.42865V13.1515Z" fill="white"/>
<path d="M8.35702 14.0907H7.42865V15.0298H8.35702V14.0907Z" fill="white"/>
<path d="M8.35702 13.1515H7.42865V14.0907H8.35702V13.1515Z" fill="white"/>
<path d="M9.2854 14.0907H8.35702V15.0298H9.2854V14.0907Z" fill="white"/>
<path d="M8.35702 15.0304H7.42865V15.9696H8.35702V15.0304Z" fill="white"/>
<path d="M9.2854 15.0304H8.35702V15.9696H9.2854V15.0304Z" fill="white"/>
<path d="M9.2854 15.9696H8.35702V16.9088H9.2854V15.9696Z" fill="white"/>
<path d="M10.2143 14.0907H9.28595V15.0298H10.2143V14.0907Z" fill="white"/>
<path d="M10.2143 15.0304H9.28595V15.9696H10.2143V15.0304Z" fill="white"/>
<path d="M10.2143 15.9696H9.28595V16.9088H10.2143V15.9696Z" fill="white"/>
<path d="M10.2143 16.9093H9.28595V17.8485H10.2143V16.9093Z" fill="white"/>
<path d="M10.2143 17.8485H9.28595V18.7877H10.2143V17.8485Z" fill="white"/>
<path d="M10.2143 18.7877H9.28595V19.7269H10.2143V18.7877Z" fill="#FFB339"/>
<path d="M10.2143 19.7275H9.28595V20.6667H10.2143V19.7275Z" fill="white"/>
<path d="M10.2143 20.6667H9.28595V21.6059H10.2143V20.6667Z" fill="#FFB339"/>
<path d="M10.2143 21.6059H9.28595V22.545H10.2143V21.6059Z" fill="white"/>
<path d="M10.2143 22.5456H9.28595V23.4848H10.2143V22.5456Z" fill="white"/>
<path d="M11.1427 15.9696H10.2143V16.9088H11.1427V15.9696Z" fill="white"/>
<path d="M11.1427 16.9093H10.2143V17.8485H11.1427V16.9093Z" fill="white"/>
<path d="M11.1427 17.8485H10.2143V18.7877H11.1427V17.8485Z" fill="white"/>
<path d="M11.1427 18.7877H10.2143V19.7269H11.1427V18.7877Z" fill="#FFB339"/>
<path d="M11.1427 19.7275H10.2143V20.6667H11.1427V19.7275Z" fill="white"/>
<path d="M11.1427 20.6667H10.2143V21.6059H11.1427V20.6667Z" fill="#FFB339"/>
<path d="M11.1427 21.6059H10.2143V22.545H11.1427V21.6059Z" fill="white"/>
<path d="M11.1427 23.4848H10.2143V24.424H11.1427V23.4848Z" fill="#B7EFF9"/>
<path d="M11.1427 22.5456H10.2143V23.4848H11.1427V22.5456Z" fill="white"/>
<path d="M12.0711 17.8485H11.1427V18.7877H12.0711V17.8485Z" fill="white"/>
<path d="M12.0711 16.9093H11.1427V17.8485H12.0711V16.9093Z" fill="white"/>
<path d="M12.0711 18.7877H11.1427V19.7269H12.0711V18.7877Z" fill="white"/>
<path d="M12.0711 19.7275H11.1427V20.6667H12.0711V19.7275Z" fill="#FFB339"/>
<path d="M12.0711 20.6667H11.1427V21.6059H12.0711V20.6667Z" fill="white"/>
<path d="M12.0711 21.6059H11.1427V22.545H12.0711V21.6059Z" fill="#FFB339"/>
<path d="M12.0711 22.5456H11.1427V23.4848H12.0711V22.5456Z" fill="white"/>
<path d="M12.0711 24.4245H11.1427V25.3637H12.0711V24.4245Z" fill="#B7EFF9"/>
<path d="M12.0711 23.4848H11.1427V24.424H12.0711V23.4848Z" fill="white"/>
<path d="M13 18.7877H12.0716V19.7269H13V18.7877Z" fill="white"/>
<path d="M13 17.8485H12.0716V18.7877H13V17.8485Z" fill="white"/>
<path d="M13 19.7275H12.0716V20.6667H13V19.7275Z" fill="#FFB339"/>
<path d="M13 20.6667H12.0716V21.6059H13V20.6667Z" fill="white"/>
<path d="M13 21.6059H12.0716V22.545H13V21.6059Z" fill="#FFB339"/>
<path d="M13 22.5456H12.0716V23.4848H13V22.5456Z" fill="white"/>
<path d="M13 23.4848H12.0716V24.424H13V23.4848Z" fill="white"/>
<path d="M13 24.4245H12.0716V25.3637H13V24.4245Z" fill="#B7EFF9"/>
<path d="M9.2854 13.1515H8.35702V14.0907H9.2854V13.1515Z" fill="white"/>
<path d="M6.49972 12.2123H5.57135V13.1515H6.49972V12.2123Z" fill="white"/>
<path d="M7.42865 12.2123H6.50028V13.1515H7.42865V12.2123Z" fill="white"/>
<path d="M8.35702 12.2123H7.42865V13.1515H8.35702V12.2123Z" fill="white"/>
<path d="M9.2854 12.2123H8.35702V13.1515H9.2854V12.2123Z" fill="white"/>
<path d="M7.42865 11.2725H6.50028V12.2117H7.42865V11.2725Z" fill="white"/>
<path d="M8.35702 11.2725H7.42865V12.2117H8.35702V11.2725Z" fill="white"/>
<path d="M9.2854 11.2725H8.35702V12.2117H9.2854V11.2725Z" fill="white"/>
<path d="M8.35702 10.3333H7.42865V11.2725H8.35702V10.3333Z" fill="white"/>
<path d="M9.2854 10.3333H8.35702V11.2725H9.2854V10.3333Z" fill="white"/>
<path d="M9.2854 9.39414H8.35702V10.3333H9.2854V9.39414Z" fill="white"/>
<path d="M11.1427 4.69707H10.2143V5.63626L11.1427 5.63626V4.69707Z" fill="#FFB339"/>
<path d="M12.0711 3.75732H11.1427V4.69651H12.0711V3.75732Z" fill="#FFB339"/>
<path d="M12.0711 2.81813H11.1427V3.75732H12.0711V2.81813Z" fill="#FFB339"/>
<path d="M13 2.81813H12.0716V3.75732H13V2.81813Z" fill="#FFB339"/>
<path d="M13 1.87894H12.0716V2.81813H13V1.87894Z" fill="#FFB339"/>
<path d="M11.1427 5.63626L10.2143 5.63626V6.57545H11.1427V5.63626Z" fill="white"/>
<path d="M11.1427 7.5152H10.2143V8.45439H11.1427V7.5152Z" fill="white"/>
<path d="M11.1427 8.45439H10.2143V9.39358H11.1427V8.45439Z" fill="white"/>
<path d="M11.1427 9.39414H10.2143V10.3333H11.1427V9.39414Z" fill="white"/>
<path d="M11.1427 10.3333H10.2143V11.2725H11.1427V10.3333Z" fill="white"/>
<path d="M11.1427 11.2725H10.2143V12.2117H11.1427V11.2725Z" fill="white"/>
<path d="M11.1427 12.2123H10.2143V13.1515H11.1427V12.2123Z" fill="white"/>
<path d="M11.1427 13.1515H10.2143V14.0907L11.1427 14.0907V13.1515Z" fill="white"/>
<path d="M12.0711 11.2725H11.1427V12.2117H12.0711V11.2725Z" fill="white"/>
<path d="M12.0711 12.2123H11.1427V13.1515H12.0711V12.2123Z" fill="white"/>
<path d="M13 12.2123H12.0716V13.1515H13V12.2123Z" fill="white"/>
<path d="M12.0711 13.1515H11.1427V14.0907L12.0711 14.0907V13.1515Z" fill="white"/>
<path d="M12.0711 14.0907L11.1427 14.0907V15.0298H12.0711V14.0907Z" fill="white"/>
<path d="M12.0711 15.0304H11.1427V15.9696L12.0711 15.9696V15.0304Z" fill="white"/>
<path d="M13 14.0907H12.0716V15.0298H13V14.0907Z" fill="white"/>
<path d="M13 15.0304H12.0716V15.9696H13V15.0304Z" fill="white"/>
<path d="M13 15.9696H12.0716V16.9088H13V15.9696Z" fill="white"/>
<path d="M1.85675 21.6059H0.928374V22.545H1.85675V21.6059Z" fill="#B7EFF9"/>
<path d="M2.78567 22.5456H1.8573V23.4848H2.78567V22.5456Z" fill="#B7EFF9"/>
<path d="M3.71405 22.5456H2.78567V23.4848H3.71405V22.5456Z" fill="#B7EFF9"/>
<path d="M2.78567 21.6059H1.8573V22.545H2.78567V21.6059Z" fill="white"/>
<path d="M3.71405 21.6059H2.78567V22.545H3.71405V21.6059Z" fill="white"/>
<path d="M4.64298 22.5456H3.7146V23.4848H4.64298V22.5456Z" fill="#00AABA"/>
<path d="M4.64298 21.6059H3.7146V22.545H4.64298V21.6059Z" fill="#00AABA"/>
<path d="M4.64298 20.6667H3.7146V21.6059H4.64298V20.6667Z" fill="#00AABA"/>
<path d="M4.64298 19.7275H3.7146V20.6667H4.64298V19.7275Z" fill="#00AABA"/>
<path d="M4.64298 16.9093H3.7146V17.8485H4.64298V16.9093Z" fill="#00AABA"/>
<path d="M5.57135 15.9696L4.64298 15.9696V16.9088H5.57135V15.9696Z" fill="#00AABA"/>
<path d="M6.49972 15.0304H5.57135V15.9696H6.49972V15.0304Z" fill="#00AABA"/>
<path d="M7.42865 15.0304H6.50028V15.9696H7.42865V15.0304Z" fill="#00AABA"/>
<path d="M8.35702 15.9696H7.42865V16.9088H8.35702V15.9696Z" fill="#00AABA"/>
<path d="M5.57135 16.9093H4.64298V17.8485H5.57135V16.9093Z" fill="#07E8E8"/>
<path d="M6.49972 15.9696H5.57135V16.9088H6.49972V15.9696Z" fill="#07E8E8"/>
<path d="M7.42865 15.9696H6.50028V16.9088H7.42865V15.9696Z" fill="#07E8E8"/>
<path d="M6.49972 16.9093H5.57135V17.8485H6.49972V16.9093Z" fill="#02D0D8"/>
<path d="M7.42865 16.9093H6.50028V17.8485H7.42865V16.9093Z" fill="#02D0D8"/>
<path d="M8.35702 16.9093H7.42865V17.8485H8.35702V16.9093Z" fill="#07E8E8"/>
<path d="M5.57135 17.8485H4.64298L4.64298 18.7877H5.57135V17.8485Z" fill="#07E8E8"/>
<path d="M6.49972 17.8485H5.57135V18.7877H6.49972V17.8485Z" fill="#02D0D8"/>
<path d="M7.42865 17.8485H6.50028V18.7877H7.42865V17.8485Z" fill="#02D0D8"/>
<path d="M8.35702 17.8485H7.42865V18.7877H8.35702V17.8485Z" fill="#07E8E8"/>
<path d="M5.57135 19.7275H4.64298V20.6667H5.57135V19.7275Z" fill="#07E8E8"/>
<path d="M6.49972 19.7275H5.57135V20.6667H6.49972V19.7275Z" fill="#02D0D8"/>
<path d="M7.42865 19.7275H6.50028V20.6667H7.42865V19.7275Z" fill="#02D0D8"/>
<path d="M8.35702 19.7275H7.42865V20.6667H8.35702V19.7275Z" fill="#07E8E8"/>
<path d="M5.57135 21.6059H4.64298V22.545H5.57135V21.6059Z" fill="#07E8E8"/>
<path d="M6.49972 21.6059H5.57135V22.545H6.49972V21.6059Z" fill="#02D0D8"/>
<path d="M7.42865 21.6059H6.50028V22.545H7.42865V21.6059Z" fill="#02D0D8"/>
<path d="M8.35702 21.6059H7.42865V22.545H8.35702V21.6059Z" fill="#07E8E8"/>
<path d="M5.57135 22.5456H4.64298V23.4848H5.57135V22.5456Z" fill="#07E8E8"/>
<path d="M6.49972 22.5456H5.57135V23.4848H6.49972V22.5456Z" fill="#02D0D8"/>
<path d="M7.42865 22.5456H6.50028V23.4848H7.42865V22.5456Z" fill="#02D0D8"/>
<path d="M8.35702 22.5456H7.42865V23.4848H8.35702V22.5456Z" fill="#07E8E8"/>
<path d="M9.2854 16.9093H8.35702V17.8485H9.2854V16.9093Z" fill="#00AABA"/>
<path d="M4.64298 17.8485H3.7146V18.7877H4.64298L4.64298 17.8485Z" fill="#00AABA"/>
<path d="M9.2854 17.8485H8.35702V18.7877H9.2854V17.8485Z" fill="#00AABA"/>
<path d="M4.64298 18.7877H3.7146V19.7269H4.64298L4.64298 18.7877Z" fill="#00AABA"/>
<path d="M5.57135 18.7877H4.64298L4.64298 19.7269H5.57135V18.7877Z" fill="#07E8E8"/>
<path d="M6.49972 18.7877H5.57135V19.7269H6.49972V18.7877Z" fill="#02D0D8"/>
<path d="M7.42865 18.7877H6.50028V19.7269H7.42865V18.7877Z" fill="#02D0D8"/>
<path d="M8.35702 18.7877H7.42865V19.7269H8.35702V18.7877Z" fill="#07E8E8"/>
<path d="M5.57135 20.6667H4.64298V21.6059H5.57135V20.6667Z" fill="#07E8E8"/>
<path d="M6.49972 20.6667H5.57135V21.6059H6.49972V20.6667Z" fill="#02D0D8"/>
<path d="M7.42865 20.6667H6.50028V21.6059H7.42865V20.6667Z" fill="#02D0D8"/>
<path d="M8.35702 20.6667H7.42865V21.6059H8.35702V20.6667Z" fill="#07E8E8"/>
<path d="M9.2854 18.7877H8.35702V19.7269H9.2854V18.7877Z" fill="#00AABA"/>
<path d="M9.2854 19.7275H8.35702V20.6667H9.2854V19.7275Z" fill="#00AABA"/>
<path d="M9.2854 20.6667H8.35702V21.6059H9.2854V20.6667Z" fill="#00AABA"/>
<path d="M9.2854 21.6059H8.35702V22.545H9.2854V21.6059Z" fill="#00AABA"/>
<path d="M9.2854 22.5456H8.35702V23.4848H9.2854V22.5456Z" fill="#00AABA"/>
<path d="M10.2143 23.4848H9.28595V24.424H10.2143V23.4848Z" fill="#B7EFF9"/>
<path d="M5.57135 23.4848H4.64298L4.64298 24.424H5.57135V23.4848Z" fill="#00AABA"/>
<path d="M6.49972 23.4848H5.57135V24.424H6.49972V23.4848Z" fill="#00AABA"/>
<path d="M7.42865 23.4848H6.50028V24.424H7.42865V23.4848Z" fill="#00AABA"/>
<path d="M8.35702 23.4848H7.42865V24.424H8.35702V23.4848Z" fill="#00AABA"/>
<path d="M13 3.75732H12.0716V4.69651H13V3.75732Z" fill="#0071B7"/>
<path d="M12.0711 4.69707H11.1427V5.63626H12.0711V4.69707Z" fill="#0071B7"/>
<path d="M12.0711 5.63626H11.1427V6.57545H12.0711V5.63626Z" fill="#0071B7"/>
<path d="M12.0711 7.5152H11.1427V8.45439H12.0711V7.5152Z" fill="#0071B7"/>
<path d="M12.0711 8.45439H11.1427V9.39358H12.0711V8.45439Z" fill="#0071B7"/>
<path d="M12.0711 9.39414H11.1427V10.3333H12.0711V9.39414Z" fill="#0071B7"/>
<path d="M12.0711 10.3333H11.1427V11.2725H12.0711V10.3333Z" fill="#0071B7"/>
<path d="M13 4.69707H12.0716V5.63626H13V4.69707Z" fill="#E6FBFF"/>
<path d="M13 5.63626H12.0716V6.57545H13V5.63626Z" fill="#B6ECFF"/>
<path d="M13 7.5152H12.0716V8.45439H13V7.5152Z" fill="#B6ECFF"/>
<path d="M13 8.45439H12.0716V9.39358H13V8.45439Z" fill="#B6ECFF"/>
<path d="M13 9.39414H12.0716V10.3333H13V9.39414Z" fill="#B6ECFF"/>
<path d="M13 10.3333H12.0716V11.2725H13V10.3333Z" fill="#B6ECFF"/>
<path d="M13 11.2725H12.0716V12.2117H13V11.2725Z" fill="#0071B7"/>
<path d="M13 13.1515H12.0716V14.0907H13V13.1515Z" fill="#0071B7"/>
<path d="M20.4286 11.2725H19.5003V12.2117H20.4286V11.2725Z" fill="#B7EFF9"/>
<path d="M19.4997 10.3333H18.5713V11.2725H19.4997V10.3333Z" fill="#B7EFF9"/>
<path d="M18.5713 9.39414H17.643V10.3333H18.5713L18.5713 9.39414Z" fill="#B7EFF9"/>
<path d="M17.643 8.45439H16.7146V9.39358H17.643V8.45439Z" fill="#B7EFF9"/>
<path d="M16.714 7.5152H15.7857V8.45439H16.714V7.5152Z" fill="#B7EFF9"/>
<path d="M16.714 8.45439H15.7857V9.39358H16.714V8.45439Z" fill="#B3E2F2"/>
<path d="M16.714 9.39414H15.7857V10.3333H16.714V9.39414Z" fill="#B3E2F2"/>
<path d="M16.714 10.3333H15.7857V11.2725H16.714V10.3333Z" fill="#B3E2F2"/>
<path d="M16.714 11.2725H15.7857V12.2117H16.714V11.2725Z" fill="#B3E2F2"/>
<path d="M16.714 12.2123H15.7857V13.1515H16.714V12.2123Z" fill="#B3E2F2"/>
<path d="M16.714 13.1515H15.7857V14.0907H16.714V13.1515Z" fill="#B3E2F2"/>
<path d="M15.7857 14.0907L14.8573 14.0907V15.0298H15.7857L15.7857 14.0907Z" fill="#B3E2F2"/>
<path d="M15.7857 15.0304H14.8573V15.9696H15.7857V15.0304Z" fill="#B3E2F2"/>
<path d="M14.8573 15.9696L13.9289 15.9696V16.9088H14.8573L14.8573 15.9696Z" fill="#B3E2F2"/>
<path d="M13.9284 16.9093H13V17.8485H13.9284V16.9093Z" fill="#B3E2F2"/>
<path d="M16.714 5.63626H15.7857V6.57545H16.714V5.63626Z" fill="#B7EFF9"/>
<path d="M16.714 4.69707H15.7857V5.63626H16.714V4.69707Z" fill="#E58800"/>
<path d="M10.2143 3.75732H9.28595V4.69651H10.2143V3.75732Z" fill="#E58800"/>
<path d="M16.714 3.75732H15.7857V4.69651H16.714V3.75732Z" fill="#E58800"/>
<path d="M15.7857 3.75732H14.8573V4.69651H15.7857V3.75732Z" fill="#FFB339"/>
<path d="M15.7857 2.81813H14.8573V3.75732H15.7857L15.7857 2.81813Z" fill="#E58800"/>
<path d="M14.8573 1.87894H13.9289V2.81813H14.8573L14.8573 1.87894Z" fill="#FFB339"/>
<path d="M15.7857 1.87894H14.8573L14.8573 2.81813H15.7857V1.87894Z" fill="#E58800"/>
<path d="M13.9284 0.939191H13V1.87838H13.9284V0.939191Z" fill="#FFB339"/>
<path d="M13 0H12.0716V0.939191H13V0Z" fill="#E58800"/>
<path d="M13.9284 0H13V0.939191H13.9284V0Z" fill="#E58800"/>
<path d="M14.8573 0.939191H13.9289V1.87838H14.8573V0.939191Z" fill="#E58800"/>
<path d="M21.357 12.2123H20.4287V13.1515H21.357V12.2123Z" fill="#B7EFF9"/>
<path d="M22.2854 13.1515H21.357V14.0907H22.2854V13.1515Z" fill="#B7EFF9"/>
<path d="M23.2143 14.0907H22.286V15.0298H23.2143V14.0907Z" fill="#B7EFF9"/>
<path d="M24.1427 15.0304H23.2143V15.9696H24.1427V15.0304Z" fill="#B7EFF9"/>
<path d="M25.0716 15.9696H24.1433V16.9088H25.0716V15.9696Z" fill="#B7EFF9"/>
<path d="M26 16.9093H25.0716V17.8485H26V16.9093Z" fill="#B7EFF9"/>
<path d="M26 21.6059H25.0716V22.545H26V21.6059Z" fill="#B7EFF9"/>
<path d="M26 20.6667H25.0716V21.6059H26V20.6667Z" fill="#B7EFF9"/>
<path d="M26 19.7275H25.0716V20.6667H26V19.7275Z" fill="#B7EFF9"/>
<path d="M26 18.7877H25.0716V19.7269H26V18.7877Z" fill="#B7EFF9"/>
<path d="M26 17.8485H25.0716V18.7877H26V17.8485Z" fill="#B7EFF9"/>
<path d="M25.0716 20.6667H24.1433V21.6059H25.0716V20.6667Z" fill="white"/>
<path d="M25.0716 19.7275H24.1433V20.6667H25.0716V19.7275Z" fill="white"/>
<path d="M25.0716 18.7877H24.1433V19.7269H25.0716V18.7877Z" fill="white"/>
<path d="M25.0716 17.8485H24.1433V18.7877H25.0716V17.8485Z" fill="white"/>
<path d="M24.1427 20.6667H23.2143V21.6059H24.1427V20.6667Z" fill="white"/>
<path d="M24.1427 19.7275H23.2143V20.6667H24.1427V19.7275Z" fill="white"/>
<path d="M24.1427 18.7877H23.2143V19.7269H24.1427V18.7877Z" fill="white"/>
<path d="M24.1427 17.8485H23.2143V18.7877H24.1427V17.8485Z" fill="white"/>
<path d="M23.2143 20.6667H22.286V21.6059H23.2143V20.6667Z" fill="#FFB339"/>
<path d="M23.2143 19.7275H22.286V20.6667H23.2143V19.7275Z" fill="white"/>
<path d="M23.2143 18.7877H22.286V19.7269H23.2143V18.7877Z" fill="#FFB339"/>
<path d="M23.2143 17.8485H22.286V18.7877H23.2143V17.8485Z" fill="white"/>
<path d="M25.0716 16.9093H24.1433V17.8485H25.0716V16.9093Z" fill="white"/>
<path d="M24.1427 16.9093H23.2143V17.8485H24.1427V16.9093Z" fill="white"/>
<path d="M23.2143 16.9093H22.286V17.8485H23.2143V16.9093Z" fill="white"/>
<path d="M24.1427 15.9696H23.2143V16.9088H24.1427V15.9696Z" fill="white"/>
<path d="M23.2143 15.9696L22.286 15.9696V16.9088H23.2143V15.9696Z" fill="white"/>
<path d="M22.2854 15.9696H21.357V16.9088H22.2854V15.9696Z" fill="white"/>
<path d="M23.2143 15.0304H22.286V15.9696L23.2143 15.9696V15.0304Z" fill="white"/>
<path d="M22.2854 15.0304H21.357V15.9696H22.2854V15.0304Z" fill="white"/>
<path d="M21.357 15.0304H20.4287V15.9696L21.357 15.9696V15.0304Z" fill="white"/>
<path d="M22.2854 14.0907H21.357V15.0298H22.2854V14.0907Z" fill="white"/>
<path d="M21.357 14.0907L20.4287 14.0907V15.0298H21.357V14.0907Z" fill="white"/>
<path d="M21.357 13.1515H20.4287V14.0907L21.357 14.0907V13.1515Z" fill="white"/>
<path d="M20.4287 14.0907H19.5003V15.0298H20.4287V14.0907Z" fill="white"/>
<path d="M20.4287 13.1515H19.5003V14.0907H20.4287V13.1515Z" fill="white"/>
<path d="M19.4997 14.0907H18.5713V15.0298H19.4997V14.0907Z" fill="white"/>
<path d="M19.4997 13.1515H18.5713V14.0907H19.4997V13.1515Z" fill="white"/>
<path d="M18.5713 14.0907H17.643V15.0298H18.5713V14.0907Z" fill="white"/>
<path d="M18.5713 13.1515H17.643V14.0907H18.5713V13.1515Z" fill="white"/>
<path d="M17.643 14.0907H16.7146V15.0298H17.643V14.0907Z" fill="white"/>
<path d="M18.5713 15.0304H17.643V15.9696H18.5713V15.0304Z" fill="white"/>
<path d="M17.643 15.0304H16.7146V15.9696H17.643V15.0304Z" fill="white"/>
<path d="M17.643 15.9696H16.7146V16.9088H17.643V15.9696Z" fill="white"/>
<path d="M16.714 14.0907H15.7857L15.7857 15.0298H16.714V14.0907Z" fill="white"/>
<path d="M16.714 15.0304H15.7857V15.9696H16.714V15.0304Z" fill="white"/>
<path d="M16.714 15.9696H15.7857L15.7857 16.9088H16.714V15.9696Z" fill="white"/>
<path d="M16.714 16.9093H15.7857V17.8485H16.714V16.9093Z" fill="white"/>
<path d="M16.714 17.8485H15.7857V18.7877H16.714V17.8485Z" fill="white"/>
<path d="M16.714 18.7877H15.7857V19.7269H16.714V18.7877Z" fill="#FFB339"/>
<path d="M16.714 19.7275H15.7857V20.6667H16.714V19.7275Z" fill="white"/>
<path d="M16.714 20.6667H15.7857V21.6059H16.714V20.6667Z" fill="#FFB339"/>
<path d="M16.714 21.6059H15.7857V22.545H16.714V21.6059Z" fill="white"/>
<path d="M16.714 22.5456H15.7857V23.4848H16.714V22.5456Z" fill="white"/>
<path d="M15.7857 15.9696H14.8573L14.8573 16.9088H15.7857L15.7857 15.9696Z" fill="white"/>
<path d="M15.7857 16.9093H14.8573V17.8485H15.7857V16.9093Z" fill="white"/>
<path d="M15.7857 17.8485H14.8573V18.7877H15.7857V17.8485Z" fill="white"/>
<path d="M15.7857 18.7877H14.8573V19.7269H15.7857V18.7877Z" fill="#FFB339"/>
<path d="M15.7857 19.7275H14.8573V20.6667H15.7857V19.7275Z" fill="white"/>
<path d="M15.7857 20.6667H14.8573V21.6059H15.7857V20.6667Z" fill="#FFB339"/>
<path d="M15.7857 21.6059H14.8573V22.545H15.7857V21.6059Z" fill="white"/>
<path d="M15.7857 23.4848H14.8573V24.424H15.7857L15.7857 23.4848Z" fill="#B7EFF9"/>
<path d="M15.7857 22.5456H14.8573V23.4848H15.7857V22.5456Z" fill="white"/>
<path d="M14.8573 17.8485H13.9289V18.7877H14.8573V17.8485Z" fill="white"/>
<path d="M14.8573 16.9093H13.9289V17.8485H14.8573V16.9093Z" fill="white"/>
<path d="M14.8573 18.7877H13.9289V19.7269H14.8573V18.7877Z" fill="white"/>
<path d="M14.8573 19.7275H13.9289V20.6667H14.8573V19.7275Z" fill="#FFB339"/>
<path d="M14.8573 20.6667H13.9289V21.6059H14.8573V20.6667Z" fill="white"/>
<path d="M14.8573 21.6059H13.9289V22.545H14.8573V21.6059Z" fill="#FFB339"/>
<path d="M14.8573 22.5456H13.9289V23.4848H14.8573V22.5456Z" fill="white"/>
<path d="M14.8573 24.4245H13.9289V25.3637H14.8573V24.4245Z" fill="#B7EFF9"/>
<path d="M14.8573 23.4848H13.9289V24.424H14.8573V23.4848Z" fill="white"/>
<path d="M13.9284 18.7877H13V19.7269H13.9284V18.7877Z" fill="white"/>
<path d="M13.9284 17.8485H13V18.7877H13.9284V17.8485Z" fill="white"/>
<path d="M13.9284 19.7275H13V20.6667H13.9284V19.7275Z" fill="#FFB339"/>
<path d="M13.9284 20.6667H13V21.6059H13.9284V20.6667Z" fill="white"/>
<path d="M13.9284 21.6059H13V22.545H13.9284V21.6059Z" fill="#FFB339"/>
<path d="M13.9284 22.5456H13V23.4848H13.9284V22.5456Z" fill="white"/>
<path d="M13.9284 23.4848H13V24.424H13.9284V23.4848Z" fill="white"/>
<path d="M13.9284 24.4245H13V25.3637H13.9284V24.4245Z" fill="#B7EFF9"/>
<path d="M17.643 13.1515H16.7146V14.0907H17.643V13.1515Z" fill="white"/>
<path d="M20.4287 12.2123H19.5003V13.1515H20.4287V12.2123Z" fill="white"/>
<path d="M19.4997 12.2123H18.5713V13.1515H19.4997V12.2123Z" fill="white"/>
<path d="M18.5713 12.2123H17.643V13.1515H18.5713V12.2123Z" fill="white"/>
<path d="M17.643 12.2123H16.7146V13.1515H17.643V12.2123Z" fill="white"/>
<path d="M19.4997 11.2725H18.5713V12.2117H19.4997V11.2725Z" fill="white"/>
<path d="M18.5713 11.2725H17.643V12.2117H18.5713V11.2725Z" fill="white"/>
<path d="M17.643 11.2725H16.7146V12.2117H17.643V11.2725Z" fill="white"/>
<path d="M18.5713 10.3333H17.643V11.2725H18.5713V10.3333Z" fill="white"/>
<path d="M17.643 10.3333H16.7146V11.2725H17.643V10.3333Z" fill="white"/>
<path d="M17.643 9.39414H16.7146V10.3333H17.643V9.39414Z" fill="white"/>
<path d="M15.7857 4.69707H14.8573V5.63626L15.7857 5.63626V4.69707Z" fill="#FFB339"/>
<path d="M14.8573 3.75732H13.9289V4.69651H14.8573V3.75732Z" fill="#FFB339"/>
<path d="M14.8573 2.81813H13.9289V3.75732H14.8573V2.81813Z" fill="#FFB339"/>
<path d="M13.9284 2.81813H13V3.75732H13.9284V2.81813Z" fill="#FFB339"/>
<path d="M13.9284 1.87894H13V2.81813H13.9284V1.87894Z" fill="#FFB339"/>
<path d="M15.7857 5.63626L14.8573 5.63626V6.57545H15.7857V5.63626Z" fill="white"/>
<path d="M15.7857 7.5152H14.8573V8.45439H15.7857V7.5152Z" fill="white"/>
<path d="M15.7857 8.45439H14.8573V9.39358H15.7857V8.45439Z" fill="white"/>
<path d="M15.7857 9.39414H14.8573V10.3333H15.7857V9.39414Z" fill="white"/>
<path d="M15.7857 10.3333H14.8573V11.2725H15.7857V10.3333Z" fill="white"/>
<path d="M15.7857 11.2725H14.8573V12.2117H15.7857V11.2725Z" fill="white"/>
<path d="M15.7857 12.2123H14.8573V13.1515H15.7857V12.2123Z" fill="white"/>
<path d="M15.7857 13.1515H14.8573V14.0907L15.7857 14.0907V13.1515Z" fill="white"/>
<path d="M14.8573 11.2725H13.9289V12.2117H14.8573V11.2725Z" fill="white"/>
<path d="M14.8573 12.2123H13.9289V13.1515H14.8573V12.2123Z" fill="white"/>
<path d="M13.9284 12.2123H13V13.1515H13.9284V12.2123Z" fill="white"/>
<path d="M14.8573 13.1515H13.9289V14.0907L14.8573 14.0907V13.1515Z" fill="white"/>
<path d="M14.8573 14.0907L13.9289 14.0907V15.0298H14.8573V14.0907Z" fill="white"/>
<path d="M14.8573 15.0304H13.9289V15.9696L14.8573 15.9696V15.0304Z" fill="white"/>
<path d="M13.9284 14.0907H13V15.0298H13.9284V14.0907Z" fill="white"/>
<path d="M13.9284 15.0304H13V15.9696H13.9284V15.0304Z" fill="white"/>
<path d="M13.9284 15.9696H13V16.9088H13.9284V15.9696Z" fill="white"/>
<path d="M25.0716 21.6059H24.1433V22.545H25.0716V21.6059Z" fill="#B7EFF9"/>
<path d="M24.1427 22.5456H23.2143V23.4848H24.1427V22.5456Z" fill="#B7EFF9"/>
<path d="M23.2143 22.5456H22.286V23.4848H23.2143V22.5456Z" fill="#B7EFF9"/>
<path d="M24.1427 21.6059H23.2143V22.545H24.1427V21.6059Z" fill="white"/>
<path d="M23.2143 21.6059H22.286V22.545H23.2143V21.6059Z" fill="white"/>
<path d="M22.2854 22.5456H21.357V23.4848H22.2854V22.5456Z" fill="#00AABA"/>
<path d="M22.2854 21.6059H21.357V22.545H22.2854V21.6059Z" fill="#00AABA"/>
<path d="M22.2854 20.6667H21.357V21.6059H22.2854V20.6667Z" fill="#00AABA"/>
<path d="M22.2854 19.7275H21.357V20.6667H22.2854V19.7275Z" fill="#00AABA"/>
<path d="M22.2854 16.9093H21.357V17.8485H22.2854V16.9093Z" fill="#00AABA"/>
<path d="M21.357 15.9696L20.4287 15.9696V16.9088H21.357V15.9696Z" fill="#00AABA"/>
<path d="M20.4287 15.0304H19.5003V15.9696H20.4287V15.0304Z" fill="#00AABA"/>
<path d="M19.4997 15.0304H18.5713V15.9696H19.4997V15.0304Z" fill="#00AABA"/>
<path d="M18.5713 15.9696H17.643V16.9088H18.5713V15.9696Z" fill="#00AABA"/>
<path d="M21.357 16.9093H20.4287V17.8485H21.357V16.9093Z" fill="#07E8E8"/>
<path d="M20.4287 15.9696H19.5003V16.9088H20.4287V15.9696Z" fill="#07E8E8"/>
<path d="M19.4997 15.9696H18.5713V16.9088H19.4997V15.9696Z" fill="#07E8E8"/>
<path d="M20.4287 16.9093H19.5003V17.8485H20.4287V16.9093Z" fill="#02D0D8"/>
<path d="M19.4997 16.9093H18.5713V17.8485H19.4997V16.9093Z" fill="#02D0D8"/>
<path d="M18.5713 16.9093H17.643V17.8485H18.5713V16.9093Z" fill="#07E8E8"/>
<path d="M21.357 17.8485H20.4287V18.7877H21.357V17.8485Z" fill="#07E8E8"/>
<path d="M20.4287 17.8485H19.5003V18.7877H20.4287V17.8485Z" fill="#02D0D8"/>
<path d="M19.4997 17.8485H18.5713V18.7877H19.4997V17.8485Z" fill="#02D0D8"/>
<path d="M18.5713 17.8485H17.643V18.7877H18.5713V17.8485Z" fill="#07E8E8"/>
<path d="M21.357 19.7275H20.4287V20.6667H21.357V19.7275Z" fill="#07E8E8"/>
<path d="M20.4287 19.7275H19.5003V20.6667H20.4287V19.7275Z" fill="#02D0D8"/>
<path d="M19.4997 19.7275H18.5713V20.6667H19.4997V19.7275Z" fill="#02D0D8"/>
<path d="M18.5713 19.7275H17.643V20.6667H18.5713V19.7275Z" fill="#07E8E8"/>
<path d="M21.357 21.6059H20.4287V22.545H21.357V21.6059Z" fill="#07E8E8"/>
<path d="M20.4287 21.6059H19.5003V22.545H20.4287V21.6059Z" fill="#02D0D8"/>
<path d="M19.4997 21.6059H18.5713V22.545H19.4997V21.6059Z" fill="#02D0D8"/>
<path d="M18.5713 21.6059H17.643V22.545H18.5713V21.6059Z" fill="#07E8E8"/>
<path d="M21.357 22.5456H20.4287V23.4848H21.357V22.5456Z" fill="#07E8E8"/>
<path d="M20.4287 22.5456H19.5003V23.4848H20.4287V22.5456Z" fill="#02D0D8"/>
<path d="M19.4997 22.5456H18.5713V23.4848H19.4997V22.5456Z" fill="#02D0D8"/>
<path d="M18.5713 22.5456H17.643V23.4848H18.5713V22.5456Z" fill="#07E8E8"/>
<path d="M17.643 16.9093H16.7146V17.8485H17.643V16.9093Z" fill="#00AABA"/>
<path d="M22.2854 17.8485H21.357V18.7877H22.2854V17.8485Z" fill="#00AABA"/>
<path d="M17.643 17.8485H16.7146V18.7877H17.643V17.8485Z" fill="#00AABA"/>
<path d="M22.2854 18.7877H21.357V19.7269H22.2854V18.7877Z" fill="#00AABA"/>
<path d="M21.357 18.7877H20.4287V19.7269H21.357V18.7877Z" fill="#07E8E8"/>
<path d="M20.4287 18.7877H19.5003V19.7269H20.4287V18.7877Z" fill="#02D0D8"/>
<path d="M19.4997 18.7877H18.5713V19.7269H19.4997V18.7877Z" fill="#02D0D8"/>
<path d="M18.5713 18.7877H17.643V19.7269H18.5713V18.7877Z" fill="#07E8E8"/>
<path d="M21.357 20.6667H20.4287V21.6059H21.357V20.6667Z" fill="#07E8E8"/>
<path d="M20.4287 20.6667H19.5003V21.6059H20.4287V20.6667Z" fill="#02D0D8"/>
<path d="M19.4997 20.6667H18.5713V21.6059H19.4997V20.6667Z" fill="#02D0D8"/>
<path d="M18.5713 20.6667H17.643V21.6059H18.5713V20.6667Z" fill="#07E8E8"/>
<path d="M17.643 18.7877H16.7146V19.7269H17.643V18.7877Z" fill="#00AABA"/>
<path d="M17.643 19.7275H16.7146V20.6667H17.643V19.7275Z" fill="#00AABA"/>
<path d="M17.643 20.6667H16.7146V21.6059H17.643V20.6667Z" fill="#00AABA"/>
<path d="M17.643 21.6059H16.7146V22.545H17.643V21.6059Z" fill="#00AABA"/>
<path d="M17.643 22.5456H16.7146V23.4848H17.643V22.5456Z" fill="#00AABA"/>
<path d="M16.714 23.4848H15.7857L15.7857 24.424H16.714V23.4848Z" fill="#B7EFF9"/>
<path d="M21.357 23.4848H20.4287V24.424H21.357V23.4848Z" fill="#00AABA"/>
<path d="M20.4287 23.4848H19.5003V24.424H20.4287V23.4848Z" fill="#00AABA"/>
<path d="M19.4997 23.4848H18.5713V24.424H19.4997V23.4848Z" fill="#00AABA"/>
<path d="M18.5713 23.4848H17.643V24.424H18.5713V23.4848Z" fill="#00AABA"/>
<path d="M13.9284 3.75732H13V4.69651H13.9284V3.75732Z" fill="#0071B7"/>
<path d="M14.8573 4.69707H13.9289V5.63626H14.8573V4.69707Z" fill="#0071B7"/>
<path d="M14.8573 5.63626H13.9289V6.57545H14.8573V5.63626Z" fill="#0071B7"/>
<path d="M14.8573 7.5152H13.9289V8.45439H14.8573V7.5152Z" fill="#0071B7"/>
<path d="M14.8573 8.45439H13.9289V9.39358H14.8573V8.45439Z" fill="#0071B7"/>
<path d="M14.8573 9.39414H13.9289V10.3333H14.8573V9.39414Z" fill="#0071B7"/>
<path d="M14.8573 10.3333H13.9289V11.2725H14.8573V10.3333Z" fill="#0071B7"/>
<path d="M13.9284 4.69707H13V5.63626H13.9284V4.69707Z" fill="#B6ECFF"/>
<path d="M13.9284 5.63626H13V6.57545H13.9284V5.63626Z" fill="#B6ECFF"/>
<path d="M13.9284 7.5152H13V8.45439H13.9284V7.5152Z" fill="#B6ECFF"/>
<path d="M10.2143 6.57601H9.28595V7.5152H10.2143V6.57601Z" fill="#B7EFF9"/>
<path d="M11.1427 6.57601H10.2143V7.5152H11.1427V6.57601Z" fill="white"/>
<path d="M12.0711 6.57601H11.1427V7.5152H12.0711V6.57601Z" fill="#0071B7"/>
<path d="M13 6.57601H12.0716V7.5152H13V6.57601Z" fill="#B6ECFF"/>
<path d="M16.714 6.57601H15.7857V7.5152H16.714V6.57601Z" fill="#B7EFF9"/>
<path d="M15.7857 6.57601H14.8573V7.5152H15.7857V6.57601Z" fill="white"/>
<path d="M14.8573 6.57601H13.9289V7.5152H14.8573V6.57601Z" fill="#0071B7"/>
<path d="M13.9284 6.57601H13V7.5152H13.9284V6.57601Z" fill="#B6ECFF"/>
<path d="M13.9284 8.45439H13V9.39358H13.9284V8.45439Z" fill="#B6ECFF"/>
<path d="M13.9284 9.39414H13V10.3333H13.9284V9.39414Z" fill="#B6ECFF"/>
<path d="M13.9284 10.3333H13V11.2725H13.9284V10.3333Z" fill="#84DFF7"/>
<path d="M13.9284 11.2725H13V12.2117H13.9284V11.2725Z" fill="#0071B7"/>
<path d="M13.9284 13.1515H13V14.0907H13.9284V13.1515Z" fill="#0071B7"/>
</g>
</svg>
